# xmcd
#
# Track frame offsets: 
#        150
#        20312
#        40637
#        58710
#        77732
#        92442
#        112427
#        132990
#        149980
#        170137
#        189402
#        210005
#
# Disc length: 3119 seconds
#
# Revision: 4
# Processed by: cddbd v1.5.2PL0 Copyright (c) Steve Scherf et al.
# Submitted via: ExactAudioCopy v0.95a5
#
DISCID=a70c2d0c
DTITLE=Az Yet - k-Az Yet
DYEAR=1996
DGENRE=R&B
TTITLE0=Last Night
TTITLE1=Saved For Someone Else
TTITLE2=Care For Me
TTITLE3=Every Little Bit Of My Heart
TTITLE4=Hard To Say I'm Sorry
TTITLE5=That's All I Want
TTITLE6=Secrets
TTITLE7=Through My Heart (The Arrow)
TTITLE8=I Don't Want To Be Lonely
TTITLE9=Sadder Than Blue
TTITLE10=Inseparable Lovers
TTITLE11=Time To End The Story
EXTD=YEAR: 1996
EXTT0=
EXTT1=
EXTT2=
EXTT3=
EXTT4=
EXTT5=
EXTT6=
EXTT7=(The Arrow)
EXTT8=
EXTT9=
EXTT10=
EXTT11=
PLAYORDER=
